<mxfile host="app.diagrams.net" agent="Mozilla/5.0 (Windows NT 10.0; Win64; x64) AppleWebKit/537.36 (KHTML, like Gecko) Chrome/130.0.0.0 Safari/537.36" version="24.8.2">
  <diagram name="Page-1" id="k0cqmjUiPK7j3xK4QjtC">
    <mxGraphModel dx="1509" dy="1877" grid="1" gridSize="10" guides="1" tooltips="1" connect="1" arrows="1" fold="1" page="1" pageScale="1" pageWidth="850" pageHeight="1100" math="0" shadow="0">
      <root>
        <mxCell id="0" />
        <mxCell id="1" parent="0" />
        <mxCell id="8Uti4OmW7il91AyXcBxJ-3" style="edgeStyle=orthogonalEdgeStyle;rounded=0;orthogonalLoop=1;jettySize=auto;html=1;entryX=0.5;entryY=0;entryDx=0;entryDy=0;" edge="1" parent="1" source="8Uti4OmW7il91AyXcBxJ-1" target="8Uti4OmW7il91AyXcBxJ-2">
          <mxGeometry relative="1" as="geometry" />
        </mxCell>
        <mxCell id="8Uti4OmW7il91AyXcBxJ-1" value="&lt;font face=&quot;Verdana&quot;&gt;#include &amp;lt;glad/glad.h&amp;gt;&lt;/font&gt;&lt;div&gt;&lt;font face=&quot;KCHDUmrtMIjenIoUFEwp&quot;&gt;#include &amp;lt;GLFW/glfw3.h&amp;gt;&lt;/font&gt;&lt;/div&gt;" style="whiteSpace=wrap;html=1;" vertex="1" parent="1">
          <mxGeometry x="110" y="40" width="200" height="60" as="geometry" />
        </mxCell>
        <mxCell id="8Uti4OmW7il91AyXcBxJ-5" style="edgeStyle=orthogonalEdgeStyle;rounded=0;orthogonalLoop=1;jettySize=auto;html=1;" edge="1" parent="1" source="8Uti4OmW7il91AyXcBxJ-2" target="8Uti4OmW7il91AyXcBxJ-4">
          <mxGeometry relative="1" as="geometry" />
        </mxCell>
        <mxCell id="8Uti4OmW7il91AyXcBxJ-2" value="&lt;font face=&quot;Verdana&quot;&gt;glfwInit()&lt;/font&gt;" style="whiteSpace=wrap;html=1;" vertex="1" parent="1">
          <mxGeometry x="110" y="160" width="200" height="60" as="geometry" />
        </mxCell>
        <mxCell id="8Uti4OmW7il91AyXcBxJ-7" style="edgeStyle=orthogonalEdgeStyle;rounded=0;orthogonalLoop=1;jettySize=auto;html=1;entryX=0.5;entryY=0;entryDx=0;entryDy=0;" edge="1" parent="1" source="8Uti4OmW7il91AyXcBxJ-4" target="8Uti4OmW7il91AyXcBxJ-6">
          <mxGeometry relative="1" as="geometry" />
        </mxCell>
        <mxCell id="8Uti4OmW7il91AyXcBxJ-4" value="&lt;font face=&quot;Verdana&quot;&gt;glfwWindowHint(GLFW_CONTEXT_VERSION_MAJOR,3);&lt;/font&gt;&lt;div&gt;&lt;font face=&quot;Verdana&quot;&gt;glfwWindowHint(GLFW_CONTEXT_VERSION_MINOR&lt;span style=&quot;background-color: rgb(255, 255, 255);&quot;&gt;,&lt;/span&gt;3);&lt;/font&gt;&lt;/div&gt;&lt;div&gt;&lt;font face=&quot;Verdana&quot;&gt;glfwWindowHint(GLFW_OPENGL_PROFILE,&lt;/font&gt;&lt;span style=&quot;font-family: Consolas, &amp;quot;Courier New&amp;quot;, monospace; font-size: 14px; white-space: pre;&quot;&gt;&lt;span style=&quot;background-color: rgb(255, 255, 255);&quot;&gt;GLFW_OPENGL_CORE_PROFIL&lt;/span&gt;&lt;font style=&quot;background-color: rgb(255, 255, 255);&quot;&gt;E&lt;/font&gt;&lt;/span&gt;&lt;span style=&quot;font-family: Verdana; background-color: initial;&quot;&gt;);&lt;/span&gt;&lt;br&gt;&lt;/div&gt;" style="whiteSpace=wrap;html=1;" vertex="1" parent="1">
          <mxGeometry x="430" y="320" width="450" height="60" as="geometry" />
        </mxCell>
        <mxCell id="8Uti4OmW7il91AyXcBxJ-9" style="edgeStyle=orthogonalEdgeStyle;rounded=0;orthogonalLoop=1;jettySize=auto;html=1;" edge="1" parent="1" source="8Uti4OmW7il91AyXcBxJ-6" target="8Uti4OmW7il91AyXcBxJ-8">
          <mxGeometry relative="1" as="geometry" />
        </mxCell>
        <mxCell id="8Uti4OmW7il91AyXcBxJ-6" value="&lt;font face=&quot;Verdana&quot;&gt;glfwCreateWindow&lt;/font&gt;" style="whiteSpace=wrap;html=1;" vertex="1" parent="1">
          <mxGeometry x="110" y="460" width="200" height="60" as="geometry" />
        </mxCell>
        <mxCell id="8Uti4OmW7il91AyXcBxJ-11" style="edgeStyle=orthogonalEdgeStyle;rounded=0;orthogonalLoop=1;jettySize=auto;html=1;" edge="1" parent="1" source="8Uti4OmW7il91AyXcBxJ-8" target="8Uti4OmW7il91AyXcBxJ-10">
          <mxGeometry relative="1" as="geometry" />
        </mxCell>
        <mxCell id="8Uti4OmW7il91AyXcBxJ-8" value="&lt;font face=&quot;Verdana&quot;&gt;glfwMakeContextCurrent&lt;/font&gt;" style="whiteSpace=wrap;html=1;" vertex="1" parent="1">
          <mxGeometry x="110" y="610" width="200" height="60" as="geometry" />
        </mxCell>
        <mxCell id="8Uti4OmW7il91AyXcBxJ-13" style="edgeStyle=orthogonalEdgeStyle;rounded=0;orthogonalLoop=1;jettySize=auto;html=1;entryX=0.5;entryY=0;entryDx=0;entryDy=0;" edge="1" parent="1" source="8Uti4OmW7il91AyXcBxJ-10" target="8Uti4OmW7il91AyXcBxJ-12">
          <mxGeometry relative="1" as="geometry" />
        </mxCell>
        <mxCell id="8Uti4OmW7il91AyXcBxJ-10" value="gladLoadGLLoader" style="whiteSpace=wrap;html=1;" vertex="1" parent="1">
          <mxGeometry x="110" y="730" width="200" height="60" as="geometry" />
        </mxCell>
        <mxCell id="8Uti4OmW7il91AyXcBxJ-15" style="edgeStyle=orthogonalEdgeStyle;rounded=0;orthogonalLoop=1;jettySize=auto;html=1;" edge="1" parent="1" source="8Uti4OmW7il91AyXcBxJ-12" target="8Uti4OmW7il91AyXcBxJ-14">
          <mxGeometry relative="1" as="geometry" />
        </mxCell>
        <mxCell id="8Uti4OmW7il91AyXcBxJ-12" value="进行OpenGL的绘制" style="whiteSpace=wrap;html=1;" vertex="1" parent="1">
          <mxGeometry x="110" y="860" width="200" height="60" as="geometry" />
        </mxCell>
        <mxCell id="8Uti4OmW7il91AyXcBxJ-20" style="edgeStyle=orthogonalEdgeStyle;rounded=0;orthogonalLoop=1;jettySize=auto;html=1;entryX=0.5;entryY=1;entryDx=0;entryDy=0;exitX=0.5;exitY=1;exitDx=0;exitDy=0;" edge="1" parent="1" source="8Uti4OmW7il91AyXcBxJ-14" target="8Uti4OmW7il91AyXcBxJ-18">
          <mxGeometry relative="1" as="geometry" />
        </mxCell>
        <mxCell id="8Uti4OmW7il91AyXcBxJ-14" value="glfwSwapBuffers&lt;div&gt;glfwPollEvents&lt;/div&gt;" style="whiteSpace=wrap;html=1;" vertex="1" parent="1">
          <mxGeometry x="110" y="980" width="200" height="60" as="geometry" />
        </mxCell>
        <mxCell id="8Uti4OmW7il91AyXcBxJ-16" value="glfwTerminate" style="whiteSpace=wrap;html=1;" vertex="1" parent="1">
          <mxGeometry x="110" y="1160" width="200" height="60" as="geometry" />
        </mxCell>
        <mxCell id="8Uti4OmW7il91AyXcBxJ-21" style="edgeStyle=orthogonalEdgeStyle;rounded=0;orthogonalLoop=1;jettySize=auto;html=1;entryX=1;entryY=0.5;entryDx=0;entryDy=0;" edge="1" parent="1" source="8Uti4OmW7il91AyXcBxJ-18" target="8Uti4OmW7il91AyXcBxJ-16">
          <mxGeometry relative="1" as="geometry">
            <Array as="points">
              <mxPoint x="660" y="970" />
              <mxPoint x="660" y="1190" />
            </Array>
          </mxGeometry>
        </mxCell>
        <mxCell id="8Uti4OmW7il91AyXcBxJ-18" value="glfwWindowShouldClose" style="rhombus;whiteSpace=wrap;html=1;" vertex="1" parent="1">
          <mxGeometry x="460" y="930" width="180" height="80" as="geometry" />
        </mxCell>
        <mxCell id="8Uti4OmW7il91AyXcBxJ-19" style="edgeStyle=orthogonalEdgeStyle;rounded=0;orthogonalLoop=1;jettySize=auto;html=1;entryX=1.005;entryY=0.367;entryDx=0;entryDy=0;entryPerimeter=0;" edge="1" parent="1" source="8Uti4OmW7il91AyXcBxJ-18" target="8Uti4OmW7il91AyXcBxJ-12">
          <mxGeometry relative="1" as="geometry">
            <Array as="points">
              <mxPoint x="550" y="882" />
            </Array>
          </mxGeometry>
        </mxCell>
        <mxCell id="8Uti4OmW7il91AyXcBxJ-22" value="glfw 窗口和上下文环境初始化" style="text;html=1;align=center;verticalAlign=middle;resizable=0;points=[];autosize=1;strokeColor=none;fillColor=none;" vertex="1" parent="1">
          <mxGeometry x="340" y="-32" width="180" height="30" as="geometry" />
        </mxCell>
        <mxCell id="8Uti4OmW7il91AyXcBxJ-23" value="shader的原理和创建流程" style="text;html=1;align=center;verticalAlign=middle;resizable=0;points=[];autosize=1;strokeColor=none;fillColor=none;" vertex="1" parent="1">
          <mxGeometry x="1360" y="-2" width="160" height="30" as="geometry" />
        </mxCell>
        <mxCell id="8Uti4OmW7il91AyXcBxJ-24" value="CPU" style="whiteSpace=wrap;html=1;" vertex="1" parent="1">
          <mxGeometry x="1100" y="80" width="120" height="60" as="geometry" />
        </mxCell>
        <mxCell id="8Uti4OmW7il91AyXcBxJ-25" value="GPU" style="whiteSpace=wrap;html=1;" vertex="1" parent="1">
          <mxGeometry x="1460" y="80" width="120" height="60" as="geometry" />
        </mxCell>
        <mxCell id="8Uti4OmW7il91AyXcBxJ-28" value="" style="endArrow=none;dashed=1;html=1;rounded=0;entryX=0.5;entryY=1;entryDx=0;entryDy=0;" edge="1" parent="1" target="8Uti4OmW7il91AyXcBxJ-24">
          <mxGeometry width="50" height="50" relative="1" as="geometry">
            <mxPoint x="1170" y="520" as="sourcePoint" />
            <mxPoint x="1150" y="250" as="targetPoint" />
            <Array as="points">
              <mxPoint x="1160" y="520" />
            </Array>
          </mxGeometry>
        </mxCell>
        <mxCell id="8Uti4OmW7il91AyXcBxJ-29" value="" style="endArrow=none;dashed=1;html=1;rounded=0;entryX=0.5;entryY=1;entryDx=0;entryDy=0;" edge="1" parent="1">
          <mxGeometry width="50" height="50" relative="1" as="geometry">
            <mxPoint x="1530" y="520" as="sourcePoint" />
            <mxPoint x="1520" y="140" as="targetPoint" />
            <Array as="points">
              <mxPoint x="1520" y="520" />
            </Array>
          </mxGeometry>
        </mxCell>
        <mxCell id="8Uti4OmW7il91AyXcBxJ-31" value="" style="endArrow=classic;html=1;rounded=0;" edge="1" parent="1">
          <mxGeometry width="50" height="50" relative="1" as="geometry">
            <mxPoint x="1160" y="230" as="sourcePoint" />
            <mxPoint x="1520" y="230" as="targetPoint" />
          </mxGeometry>
        </mxCell>
        <mxCell id="8Uti4OmW7il91AyXcBxJ-33" value="Program Shader" style="text;html=1;align=center;verticalAlign=middle;resizable=0;points=[];autosize=1;strokeColor=none;fillColor=none;" vertex="1" parent="1">
          <mxGeometry x="1290" y="198" width="110" height="30" as="geometry" />
        </mxCell>
        <mxCell id="8Uti4OmW7il91AyXcBxJ-34" value="" style="endArrow=classic;html=1;rounded=0;" edge="1" parent="1">
          <mxGeometry width="50" height="50" relative="1" as="geometry">
            <mxPoint x="1160" y="302" as="sourcePoint" />
            <mxPoint x="1520" y="302" as="targetPoint" />
          </mxGeometry>
        </mxCell>
        <mxCell id="8Uti4OmW7il91AyXcBxJ-35" value="attribute input 顶点数据" style="text;html=1;align=center;verticalAlign=middle;resizable=0;points=[];autosize=1;strokeColor=none;fillColor=none;" vertex="1" parent="1">
          <mxGeometry x="1270" y="270" width="150" height="30" as="geometry" />
        </mxCell>
        <mxCell id="8Uti4OmW7il91AyXcBxJ-36" value="" style="endArrow=classic;html=1;rounded=0;" edge="1" parent="1">
          <mxGeometry width="50" height="50" relative="1" as="geometry">
            <mxPoint x="1160" y="392" as="sourcePoint" />
            <mxPoint x="1520" y="392" as="targetPoint" />
          </mxGeometry>
        </mxCell>
        <mxCell id="8Uti4OmW7il91AyXcBxJ-37" value="uniform input" style="text;html=1;align=center;verticalAlign=middle;resizable=0;points=[];autosize=1;strokeColor=none;fillColor=none;" vertex="1" parent="1">
          <mxGeometry x="1300" y="360" width="90" height="30" as="geometry" />
        </mxCell>
        <mxCell id="8Uti4OmW7il91AyXcBxJ-38" value="" style="endArrow=classic;html=1;rounded=0;" edge="1" parent="1">
          <mxGeometry width="50" height="50" relative="1" as="geometry">
            <mxPoint x="1160" y="472" as="sourcePoint" />
            <mxPoint x="1520" y="472" as="targetPoint" />
          </mxGeometry>
        </mxCell>
        <mxCell id="8Uti4OmW7il91AyXcBxJ-39" value="draw" style="text;html=1;align=center;verticalAlign=middle;resizable=0;points=[];autosize=1;strokeColor=none;fillColor=none;" vertex="1" parent="1">
          <mxGeometry x="1320" y="440" width="50" height="30" as="geometry" />
        </mxCell>
        <mxCell id="8Uti4OmW7il91AyXcBxJ-43" style="edgeStyle=orthogonalEdgeStyle;rounded=0;orthogonalLoop=1;jettySize=auto;html=1;" edge="1" parent="1" source="8Uti4OmW7il91AyXcBxJ-40" target="8Uti4OmW7il91AyXcBxJ-41">
          <mxGeometry relative="1" as="geometry" />
        </mxCell>
        <mxCell id="8Uti4OmW7il91AyXcBxJ-40" value="输入" style="whiteSpace=wrap;html=1;" vertex="1" parent="1">
          <mxGeometry x="1650" y="80" width="120" height="60" as="geometry" />
        </mxCell>
        <mxCell id="8Uti4OmW7il91AyXcBxJ-44" value="" style="edgeStyle=orthogonalEdgeStyle;rounded=0;orthogonalLoop=1;jettySize=auto;html=1;" edge="1" parent="1" source="8Uti4OmW7il91AyXcBxJ-41" target="8Uti4OmW7il91AyXcBxJ-42">
          <mxGeometry relative="1" as="geometry" />
        </mxCell>
        <mxCell id="8Uti4OmW7il91AyXcBxJ-41" value="运行在GPU上的一段程序" style="whiteSpace=wrap;html=1;" vertex="1" parent="1">
          <mxGeometry x="1650" y="228" width="120" height="60" as="geometry" />
        </mxCell>
        <mxCell id="8Uti4OmW7il91AyXcBxJ-46" style="edgeStyle=orthogonalEdgeStyle;rounded=0;orthogonalLoop=1;jettySize=auto;html=1;entryX=0.5;entryY=0;entryDx=0;entryDy=0;" edge="1" parent="1" source="8Uti4OmW7il91AyXcBxJ-42" target="8Uti4OmW7il91AyXcBxJ-45">
          <mxGeometry relative="1" as="geometry" />
        </mxCell>
        <mxCell id="8Uti4OmW7il91AyXcBxJ-42" value="输出" style="whiteSpace=wrap;html=1;" vertex="1" parent="1">
          <mxGeometry x="1650" y="390" width="120" height="60" as="geometry" />
        </mxCell>
        <mxCell id="8Uti4OmW7il91AyXcBxJ-45" value="FrameBuffer" style="whiteSpace=wrap;html=1;" vertex="1" parent="1">
          <mxGeometry x="1550" y="540" width="120" height="60" as="geometry" />
        </mxCell>
        <mxCell id="8Uti4OmW7il91AyXcBxJ-50" style="edgeStyle=orthogonalEdgeStyle;rounded=0;orthogonalLoop=1;jettySize=auto;html=1;" edge="1" parent="1" source="8Uti4OmW7il91AyXcBxJ-47" target="8Uti4OmW7il91AyXcBxJ-49">
          <mxGeometry relative="1" as="geometry" />
        </mxCell>
        <mxCell id="8Uti4OmW7il91AyXcBxJ-47" value="glCreateProgram" style="whiteSpace=wrap;html=1;" vertex="1" parent="1">
          <mxGeometry x="1190" y="730" width="120" height="60" as="geometry" />
        </mxCell>
        <mxCell id="8Uti4OmW7il91AyXcBxJ-48" value="上述流程对应的具体代码" style="text;html=1;align=center;verticalAlign=middle;resizable=0;points=[];autosize=1;strokeColor=none;fillColor=none;" vertex="1" parent="1">
          <mxGeometry x="1330" y="638" width="160" height="30" as="geometry" />
        </mxCell>
        <mxCell id="8Uti4OmW7il91AyXcBxJ-49" value="glAttachShader" style="whiteSpace=wrap;html=1;" vertex="1" parent="1">
          <mxGeometry x="1190" y="840" width="120" height="60" as="geometry" />
        </mxCell>
        <mxCell id="8Uti4OmW7il91AyXcBxJ-51" value="glLinkProgram" style="whiteSpace=wrap;html=1;" vertex="1" parent="1">
          <mxGeometry x="1190" y="970" width="110" height="60" as="geometry" />
        </mxCell>
        <mxCell id="8Uti4OmW7il91AyXcBxJ-55" style="edgeStyle=orthogonalEdgeStyle;rounded=0;orthogonalLoop=1;jettySize=auto;html=1;" edge="1" parent="1" source="8Uti4OmW7il91AyXcBxJ-52" target="8Uti4OmW7il91AyXcBxJ-54">
          <mxGeometry relative="1" as="geometry">
            <Array as="points">
              <mxPoint x="1425" y="1230" />
              <mxPoint x="1245" y="1230" />
            </Array>
          </mxGeometry>
        </mxCell>
        <mxCell id="8Uti4OmW7il91AyXcBxJ-52" value="glGetProgamiv" style="whiteSpace=wrap;html=1;" vertex="1" parent="1">
          <mxGeometry x="1370" y="1150" width="110" height="60" as="geometry" />
        </mxCell>
        <mxCell id="8Uti4OmW7il91AyXcBxJ-53" style="edgeStyle=orthogonalEdgeStyle;rounded=0;orthogonalLoop=1;jettySize=auto;html=1;entryX=0.5;entryY=0;entryDx=0;entryDy=0;" edge="1" parent="1" source="8Uti4OmW7il91AyXcBxJ-51" target="8Uti4OmW7il91AyXcBxJ-52">
          <mxGeometry relative="1" as="geometry">
            <Array as="points">
              <mxPoint x="1245" y="1080" />
              <mxPoint x="1425" y="1080" />
            </Array>
          </mxGeometry>
        </mxCell>
        <mxCell id="8Uti4OmW7il91AyXcBxJ-54" value="glDeleteProgram" style="whiteSpace=wrap;html=1;" vertex="1" parent="1">
          <mxGeometry x="1190" y="1280" width="110" height="60" as="geometry" />
        </mxCell>
        <mxCell id="8Uti4OmW7il91AyXcBxJ-56" style="edgeStyle=orthogonalEdgeStyle;rounded=0;orthogonalLoop=1;jettySize=auto;html=1;entryX=0.545;entryY=0;entryDx=0;entryDy=0;entryPerimeter=0;" edge="1" parent="1" source="8Uti4OmW7il91AyXcBxJ-49" target="8Uti4OmW7il91AyXcBxJ-51">
          <mxGeometry relative="1" as="geometry" />
        </mxCell>
        <mxCell id="8Uti4OmW7il91AyXcBxJ-57" style="edgeStyle=orthogonalEdgeStyle;rounded=0;orthogonalLoop=1;jettySize=auto;html=1;" edge="1" parent="1" source="8Uti4OmW7il91AyXcBxJ-58" target="8Uti4OmW7il91AyXcBxJ-59">
          <mxGeometry relative="1" as="geometry" />
        </mxCell>
        <mxCell id="8Uti4OmW7il91AyXcBxJ-58" value="glCreateShader" style="whiteSpace=wrap;html=1;" vertex="1" parent="1">
          <mxGeometry x="1580" y="730" width="120" height="60" as="geometry" />
        </mxCell>
        <mxCell id="8Uti4OmW7il91AyXcBxJ-59" value="glShaderSource" style="whiteSpace=wrap;html=1;" vertex="1" parent="1">
          <mxGeometry x="1580" y="840" width="120" height="60" as="geometry" />
        </mxCell>
        <mxCell id="8Uti4OmW7il91AyXcBxJ-60" value="glCompileShader" style="whiteSpace=wrap;html=1;" vertex="1" parent="1">
          <mxGeometry x="1580" y="970" width="110" height="60" as="geometry" />
        </mxCell>
        <mxCell id="8Uti4OmW7il91AyXcBxJ-61" style="edgeStyle=orthogonalEdgeStyle;rounded=0;orthogonalLoop=1;jettySize=auto;html=1;" edge="1" parent="1" source="8Uti4OmW7il91AyXcBxJ-62" target="8Uti4OmW7il91AyXcBxJ-64">
          <mxGeometry relative="1" as="geometry">
            <Array as="points">
              <mxPoint x="1815" y="1230" />
              <mxPoint x="1635" y="1230" />
            </Array>
          </mxGeometry>
        </mxCell>
        <mxCell id="8Uti4OmW7il91AyXcBxJ-62" value="glGetShaderiv" style="whiteSpace=wrap;html=1;" vertex="1" parent="1">
          <mxGeometry x="1760" y="1150" width="110" height="60" as="geometry" />
        </mxCell>
        <mxCell id="8Uti4OmW7il91AyXcBxJ-63" style="edgeStyle=orthogonalEdgeStyle;rounded=0;orthogonalLoop=1;jettySize=auto;html=1;entryX=0.5;entryY=0;entryDx=0;entryDy=0;" edge="1" parent="1" source="8Uti4OmW7il91AyXcBxJ-60" target="8Uti4OmW7il91AyXcBxJ-62">
          <mxGeometry relative="1" as="geometry">
            <Array as="points">
              <mxPoint x="1635" y="1080" />
              <mxPoint x="1815" y="1080" />
            </Array>
          </mxGeometry>
        </mxCell>
        <mxCell id="8Uti4OmW7il91AyXcBxJ-64" value="glDeleteShader" style="whiteSpace=wrap;html=1;" vertex="1" parent="1">
          <mxGeometry x="1580" y="1280" width="110" height="60" as="geometry" />
        </mxCell>
        <mxCell id="8Uti4OmW7il91AyXcBxJ-65" style="edgeStyle=orthogonalEdgeStyle;rounded=0;orthogonalLoop=1;jettySize=auto;html=1;entryX=0.545;entryY=0;entryDx=0;entryDy=0;entryPerimeter=0;" edge="1" parent="1" source="8Uti4OmW7il91AyXcBxJ-59" target="8Uti4OmW7il91AyXcBxJ-60">
          <mxGeometry relative="1" as="geometry" />
        </mxCell>
        <mxCell id="8Uti4OmW7il91AyXcBxJ-66" value="gpu渲染流程以及shader作用位置" style="text;html=1;align=center;verticalAlign=middle;resizable=0;points=[];autosize=1;strokeColor=none;fillColor=none;" vertex="1" parent="1">
          <mxGeometry x="2180" y="-32" width="200" height="30" as="geometry" />
        </mxCell>
        <mxCell id="8Uti4OmW7il91AyXcBxJ-72" style="edgeStyle=orthogonalEdgeStyle;rounded=0;orthogonalLoop=1;jettySize=auto;html=1;" edge="1" parent="1" source="8Uti4OmW7il91AyXcBxJ-67" target="8Uti4OmW7il91AyXcBxJ-70">
          <mxGeometry relative="1" as="geometry" />
        </mxCell>
        <mxCell id="8Uti4OmW7il91AyXcBxJ-67" value="Vertex Shader" style="whiteSpace=wrap;html=1;" vertex="1" parent="1">
          <mxGeometry x="2010" y="80" width="120" height="60" as="geometry" />
        </mxCell>
        <mxCell id="8Uti4OmW7il91AyXcBxJ-68" value="顶点" style="text;html=1;align=center;verticalAlign=middle;resizable=0;points=[];autosize=1;strokeColor=none;fillColor=none;" vertex="1" parent="1">
          <mxGeometry x="1915" y="8" width="50" height="30" as="geometry" />
        </mxCell>
        <mxCell id="8Uti4OmW7il91AyXcBxJ-69" value="" style="endArrow=classic;html=1;rounded=0;entryX=0;entryY=0;entryDx=0;entryDy=0;" edge="1" parent="1" source="8Uti4OmW7il91AyXcBxJ-68" target="8Uti4OmW7il91AyXcBxJ-67">
          <mxGeometry width="50" height="50" relative="1" as="geometry">
            <mxPoint x="1960" y="80" as="sourcePoint" />
            <mxPoint x="2010" y="30" as="targetPoint" />
          </mxGeometry>
        </mxCell>
        <mxCell id="8Uti4OmW7il91AyXcBxJ-73" style="edgeStyle=orthogonalEdgeStyle;rounded=0;orthogonalLoop=1;jettySize=auto;html=1;entryX=0;entryY=0.5;entryDx=0;entryDy=0;" edge="1" parent="1" source="8Uti4OmW7il91AyXcBxJ-70" target="8Uti4OmW7il91AyXcBxJ-71">
          <mxGeometry relative="1" as="geometry" />
        </mxCell>
        <mxCell id="8Uti4OmW7il91AyXcBxJ-70" value="图元装配" style="whiteSpace=wrap;html=1;" vertex="1" parent="1">
          <mxGeometry x="2200" y="80" width="120" height="60" as="geometry" />
        </mxCell>
        <mxCell id="8Uti4OmW7il91AyXcBxJ-76" style="edgeStyle=orthogonalEdgeStyle;rounded=0;orthogonalLoop=1;jettySize=auto;html=1;" edge="1" parent="1" source="8Uti4OmW7il91AyXcBxJ-71" target="8Uti4OmW7il91AyXcBxJ-74">
          <mxGeometry relative="1" as="geometry" />
        </mxCell>
        <mxCell id="8Uti4OmW7il91AyXcBxJ-71" value="几何着色器（Geometry Shader）" style="whiteSpace=wrap;html=1;" vertex="1" parent="1">
          <mxGeometry x="2390" y="28" width="120" height="60" as="geometry" />
        </mxCell>
        <mxCell id="8Uti4OmW7il91AyXcBxJ-80" style="edgeStyle=orthogonalEdgeStyle;rounded=0;orthogonalLoop=1;jettySize=auto;html=1;" edge="1" parent="1" source="8Uti4OmW7il91AyXcBxJ-74" target="8Uti4OmW7il91AyXcBxJ-77">
          <mxGeometry relative="1" as="geometry" />
        </mxCell>
        <mxCell id="8Uti4OmW7il91AyXcBxJ-74" value="" style="whiteSpace=wrap;html=1;" vertex="1" parent="1">
          <mxGeometry x="2570" y="38" width="130" height="100" as="geometry" />
        </mxCell>
        <mxCell id="8Uti4OmW7il91AyXcBxJ-75" value="" style="triangle;whiteSpace=wrap;html=1;" vertex="1" parent="1">
          <mxGeometry x="2610" y="50" width="60" height="80" as="geometry" />
        </mxCell>
        <mxCell id="8Uti4OmW7il91AyXcBxJ-81" style="edgeStyle=orthogonalEdgeStyle;rounded=0;orthogonalLoop=1;jettySize=auto;html=1;" edge="1" parent="1" source="8Uti4OmW7il91AyXcBxJ-77" target="8Uti4OmW7il91AyXcBxJ-79">
          <mxGeometry relative="1" as="geometry" />
        </mxCell>
        <mxCell id="8Uti4OmW7il91AyXcBxJ-77" value="光栅化" style="whiteSpace=wrap;html=1;" vertex="1" parent="1">
          <mxGeometry x="2780" y="58" width="120" height="60" as="geometry" />
        </mxCell>
        <mxCell id="8Uti4OmW7il91AyXcBxJ-83" style="edgeStyle=orthogonalEdgeStyle;rounded=0;orthogonalLoop=1;jettySize=auto;html=1;entryX=1;entryY=0.5;entryDx=0;entryDy=0;" edge="1" parent="1" source="8Uti4OmW7il91AyXcBxJ-79" target="8Uti4OmW7il91AyXcBxJ-82">
          <mxGeometry relative="1" as="geometry" />
        </mxCell>
        <mxCell id="8Uti4OmW7il91AyXcBxJ-79" value="栅格化(像素化)" style="whiteSpace=wrap;html=1;" vertex="1" parent="1">
          <mxGeometry x="2780" y="198" width="120" height="92" as="geometry" />
        </mxCell>
        <mxCell id="8Uti4OmW7il91AyXcBxJ-85" style="edgeStyle=orthogonalEdgeStyle;rounded=0;orthogonalLoop=1;jettySize=auto;html=1;entryX=1;entryY=0.5;entryDx=0;entryDy=0;" edge="1" parent="1" source="8Uti4OmW7il91AyXcBxJ-82" target="8Uti4OmW7il91AyXcBxJ-84">
          <mxGeometry relative="1" as="geometry" />
        </mxCell>
        <mxCell id="8Uti4OmW7il91AyXcBxJ-82" value="Fragment Shader" style="whiteSpace=wrap;html=1;" vertex="1" parent="1">
          <mxGeometry x="2570" y="320" width="120" height="60" as="geometry" />
        </mxCell>
        <mxCell id="8Uti4OmW7il91AyXcBxJ-88" style="edgeStyle=orthogonalEdgeStyle;rounded=0;orthogonalLoop=1;jettySize=auto;html=1;entryX=1;entryY=0.5;entryDx=0;entryDy=0;" edge="1" parent="1" source="8Uti4OmW7il91AyXcBxJ-84" target="8Uti4OmW7il91AyXcBxJ-86">
          <mxGeometry relative="1" as="geometry" />
        </mxCell>
        <mxCell id="8Uti4OmW7il91AyXcBxJ-84" value="进行深度计算,透明度混合等" style="whiteSpace=wrap;html=1;" vertex="1" parent="1">
          <mxGeometry x="2300" y="260" width="120" height="60" as="geometry" />
        </mxCell>
        <mxCell id="8Uti4OmW7il91AyXcBxJ-86" value="输出" style="whiteSpace=wrap;html=1;" vertex="1" parent="1">
          <mxGeometry x="2020" y="260" width="120" height="60" as="geometry" />
        </mxCell>
        <mxCell id="8Uti4OmW7il91AyXcBxJ-90" value="顶点数据传递给VBO，VBO再传递给对应的shader里面的layout" style="text;html=1;align=center;verticalAlign=middle;resizable=0;points=[];autosize=1;strokeColor=none;fillColor=none;" vertex="1" parent="1">
          <mxGeometry x="2315" y="510" width="360" height="30" as="geometry" />
        </mxCell>
        <mxCell id="8Uti4OmW7il91AyXcBxJ-96" style="edgeStyle=orthogonalEdgeStyle;rounded=0;orthogonalLoop=1;jettySize=auto;html=1;" edge="1" parent="1" source="8Uti4OmW7il91AyXcBxJ-91" target="8Uti4OmW7il91AyXcBxJ-92">
          <mxGeometry relative="1" as="geometry" />
        </mxCell>
        <mxCell id="8Uti4OmW7il91AyXcBxJ-91" value="glGenBuffers" style="whiteSpace=wrap;html=1;" vertex="1" parent="1">
          <mxGeometry x="2260" y="570" width="450" height="60" as="geometry" />
        </mxCell>
        <mxCell id="8Uti4OmW7il91AyXcBxJ-97" style="edgeStyle=orthogonalEdgeStyle;rounded=0;orthogonalLoop=1;jettySize=auto;html=1;entryX=0.5;entryY=0;entryDx=0;entryDy=0;" edge="1" parent="1" source="8Uti4OmW7il91AyXcBxJ-92" target="8Uti4OmW7il91AyXcBxJ-93">
          <mxGeometry relative="1" as="geometry" />
        </mxCell>
        <mxCell id="8Uti4OmW7il91AyXcBxJ-92" value="glBindBuffer(GL_ARRAY_BUFFER,VBO)" style="whiteSpace=wrap;html=1;" vertex="1" parent="1">
          <mxGeometry x="2260" y="690" width="450" height="60" as="geometry" />
        </mxCell>
        <mxCell id="8Uti4OmW7il91AyXcBxJ-93" value="glBufferData(GL_ARRAY_BUFFER,bufferSize,VBOdata,GL_STATIC_DRAW)" style="whiteSpace=wrap;html=1;" vertex="1" parent="1">
          <mxGeometry x="2260" y="830" width="450" height="60" as="geometry" />
        </mxCell>
        <mxCell id="8Uti4OmW7il91AyXcBxJ-100" style="edgeStyle=orthogonalEdgeStyle;rounded=0;orthogonalLoop=1;jettySize=auto;html=1;" edge="1" parent="1" source="8Uti4OmW7il91AyXcBxJ-95" target="8Uti4OmW7il91AyXcBxJ-99">
          <mxGeometry relative="1" as="geometry" />
        </mxCell>
        <mxCell id="8Uti4OmW7il91AyXcBxJ-95" value="glVertexAttribPointer(layout,size,GL_FLOAT,GL_FALSE,stride,(GLvoid*)0);" style="whiteSpace=wrap;html=1;" vertex="1" parent="1">
          <mxGeometry x="2430" y="960" width="450" height="60" as="geometry" />
        </mxCell>
        <mxCell id="8Uti4OmW7il91AyXcBxJ-98" style="edgeStyle=orthogonalEdgeStyle;rounded=0;orthogonalLoop=1;jettySize=auto;html=1;entryX=0.568;entryY=0.068;entryDx=0;entryDy=0;entryPerimeter=0;" edge="1" parent="1" source="8Uti4OmW7il91AyXcBxJ-93" target="8Uti4OmW7il91AyXcBxJ-95">
          <mxGeometry relative="1" as="geometry" />
        </mxCell>
        <mxCell id="8Uti4OmW7il91AyXcBxJ-102" style="edgeStyle=orthogonalEdgeStyle;rounded=0;orthogonalLoop=1;jettySize=auto;html=1;entryX=0.5;entryY=0;entryDx=0;entryDy=0;" edge="1" parent="1" source="8Uti4OmW7il91AyXcBxJ-99" target="8Uti4OmW7il91AyXcBxJ-101">
          <mxGeometry relative="1" as="geometry" />
        </mxCell>
        <mxCell id="8Uti4OmW7il91AyXcBxJ-99" value="glEnableVertexAttribArray(layout)" style="whiteSpace=wrap;html=1;" vertex="1" parent="1">
          <mxGeometry x="2430" y="1090" width="450" height="60" as="geometry" />
        </mxCell>
        <mxCell id="8Uti4OmW7il91AyXcBxJ-101" value="glDeleteBuffers()" style="whiteSpace=wrap;html=1;" vertex="1" parent="1">
          <mxGeometry x="2170" y="1220" width="450" height="60" as="geometry" />
        </mxCell>
        <mxCell id="8Uti4OmW7il91AyXcBxJ-103" value="VAO" style="text;html=1;align=center;verticalAlign=middle;resizable=0;points=[];autosize=1;strokeColor=none;fillColor=none;" vertex="1" parent="1">
          <mxGeometry x="3085" y="518" width="50" height="30" as="geometry" />
        </mxCell>
        <mxCell id="8Uti4OmW7il91AyXcBxJ-104" value="" style="whiteSpace=wrap;html=1;aspect=fixed;" vertex="1" parent="1">
          <mxGeometry x="2975" y="590" width="300" height="300" as="geometry" />
        </mxCell>
        <mxCell id="8Uti4OmW7il91AyXcBxJ-105" value="VBO" style="whiteSpace=wrap;html=1;" vertex="1" parent="1">
          <mxGeometry x="3060" y="610" width="120" height="60" as="geometry" />
        </mxCell>
        <mxCell id="8Uti4OmW7il91AyXcBxJ-106" value="VBO" style="whiteSpace=wrap;html=1;" vertex="1" parent="1">
          <mxGeometry x="3060" y="700" width="120" height="60" as="geometry" />
        </mxCell>
        <mxCell id="8Uti4OmW7il91AyXcBxJ-107" value="VBO" style="whiteSpace=wrap;html=1;" vertex="1" parent="1">
          <mxGeometry x="3060" y="790" width="120" height="60" as="geometry" />
        </mxCell>
        <mxCell id="8Uti4OmW7il91AyXcBxJ-111" style="edgeStyle=orthogonalEdgeStyle;rounded=0;orthogonalLoop=1;jettySize=auto;html=1;" edge="1" parent="1" source="8Uti4OmW7il91AyXcBxJ-108" target="8Uti4OmW7il91AyXcBxJ-109">
          <mxGeometry relative="1" as="geometry" />
        </mxCell>
        <mxCell id="8Uti4OmW7il91AyXcBxJ-108" value="glGenVertexArrays(1,&amp;amp;VAOId);" style="whiteSpace=wrap;html=1;" vertex="1" parent="1">
          <mxGeometry x="2992.5" y="930" width="255" height="60" as="geometry" />
        </mxCell>
        <mxCell id="8Uti4OmW7il91AyXcBxJ-112" style="edgeStyle=orthogonalEdgeStyle;rounded=0;orthogonalLoop=1;jettySize=auto;html=1;" edge="1" parent="1" source="8Uti4OmW7il91AyXcBxJ-109" target="8Uti4OmW7il91AyXcBxJ-110">
          <mxGeometry relative="1" as="geometry" />
        </mxCell>
        <mxCell id="8Uti4OmW7il91AyXcBxJ-109" value="glBindVertexArray(VAOId);" style="whiteSpace=wrap;html=1;" vertex="1" parent="1">
          <mxGeometry x="2992.5" y="1060" width="255" height="60" as="geometry" />
        </mxCell>
        <mxCell id="8Uti4OmW7il91AyXcBxJ-110" value="glDeleteVertexArrays" style="whiteSpace=wrap;html=1;" vertex="1" parent="1">
          <mxGeometry x="2992.5" y="1200" width="255" height="60" as="geometry" />
        </mxCell>
        <mxCell id="8Uti4OmW7il91AyXcBxJ-113" value="EBO属于某一个VAO" style="text;html=1;align=center;verticalAlign=middle;resizable=0;points=[];autosize=1;strokeColor=none;fillColor=none;" vertex="1" parent="1">
          <mxGeometry x="3695" y="58" width="130" height="30" as="geometry" />
        </mxCell>
        <mxCell id="8Uti4OmW7il91AyXcBxJ-114" value="" style="whiteSpace=wrap;html=1;aspect=fixed;" vertex="1" parent="1">
          <mxGeometry x="3370" y="160" width="300" height="300" as="geometry" />
        </mxCell>
        <mxCell id="8Uti4OmW7il91AyXcBxJ-115" value="VAO" style="text;html=1;align=center;verticalAlign=middle;resizable=0;points=[];autosize=1;strokeColor=none;fillColor=none;" vertex="1" parent="1">
          <mxGeometry x="3485" y="128" width="50" height="30" as="geometry" />
        </mxCell>
        <mxCell id="8Uti4OmW7il91AyXcBxJ-116" value="VBO" style="whiteSpace=wrap;html=1;" vertex="1" parent="1">
          <mxGeometry x="3070" y="620" width="120" height="60" as="geometry" />
        </mxCell>
        <mxCell id="8Uti4OmW7il91AyXcBxJ-117" value="VBO" style="whiteSpace=wrap;html=1;" vertex="1" parent="1">
          <mxGeometry x="3455" y="190" width="120" height="60" as="geometry" />
        </mxCell>
        <mxCell id="8Uti4OmW7il91AyXcBxJ-118" value="VBO" style="whiteSpace=wrap;html=1;" vertex="1" parent="1">
          <mxGeometry x="3455" y="280" width="120" height="60" as="geometry" />
        </mxCell>
        <mxCell id="8Uti4OmW7il91AyXcBxJ-119" value="EBO" style="whiteSpace=wrap;html=1;" vertex="1" parent="1">
          <mxGeometry x="3455" y="400" width="120" height="60" as="geometry" />
        </mxCell>
        <mxCell id="8Uti4OmW7il91AyXcBxJ-126" style="edgeStyle=orthogonalEdgeStyle;rounded=0;orthogonalLoop=1;jettySize=auto;html=1;entryX=0.5;entryY=0;entryDx=0;entryDy=0;" edge="1" parent="1" source="8Uti4OmW7il91AyXcBxJ-120" target="8Uti4OmW7il91AyXcBxJ-121">
          <mxGeometry relative="1" as="geometry" />
        </mxCell>
        <mxCell id="8Uti4OmW7il91AyXcBxJ-120" value="glGenBuffers(1,&amp;amp;EBOId);" style="whiteSpace=wrap;html=1;" vertex="1" parent="1">
          <mxGeometry x="3760" y="138" width="520" height="60" as="geometry" />
        </mxCell>
        <mxCell id="8Uti4OmW7il91AyXcBxJ-127" style="edgeStyle=orthogonalEdgeStyle;rounded=0;orthogonalLoop=1;jettySize=auto;html=1;entryX=0.5;entryY=0;entryDx=0;entryDy=0;" edge="1" parent="1" source="8Uti4OmW7il91AyXcBxJ-121" target="8Uti4OmW7il91AyXcBxJ-122">
          <mxGeometry relative="1" as="geometry" />
        </mxCell>
        <mxCell id="8Uti4OmW7il91AyXcBxJ-121" value="glBindBuffer(GL_ELEMENT_ARRAY_BUFFER,EBOId);" style="whiteSpace=wrap;html=1;" vertex="1" parent="1">
          <mxGeometry x="3760" y="255" width="520" height="60" as="geometry" />
        </mxCell>
        <mxCell id="8Uti4OmW7il91AyXcBxJ-128" style="edgeStyle=orthogonalEdgeStyle;rounded=0;orthogonalLoop=1;jettySize=auto;html=1;" edge="1" parent="1" source="8Uti4OmW7il91AyXcBxJ-122" target="8Uti4OmW7il91AyXcBxJ-125">
          <mxGeometry relative="1" as="geometry" />
        </mxCell>
        <mxCell id="8Uti4OmW7il91AyXcBxJ-122" value="glBufferData(GL_ELEMENT_ARRAY_BUFFERD,buffSize,EBOdata,,GL_STATIC_DRAW)" style="whiteSpace=wrap;html=1;" vertex="1" parent="1">
          <mxGeometry x="3760" y="380" width="520" height="60" as="geometry" />
        </mxCell>
        <mxCell id="8Uti4OmW7il91AyXcBxJ-125" value="glDrawElements(GL_TRIANGLES,DrawTime,GL_UNSIGNED_INT,0)" style="whiteSpace=wrap;html=1;" vertex="1" parent="1">
          <mxGeometry x="3990" y="510" width="520" height="60" as="geometry" />
        </mxCell>
        <mxCell id="8Uti4OmW7il91AyXcBxJ-129" value="texture" style="text;html=1;align=center;verticalAlign=middle;resizable=0;points=[];autosize=1;strokeColor=none;fillColor=none;" vertex="1" parent="1">
          <mxGeometry x="3890" y="640" width="60" height="30" as="geometry" />
        </mxCell>
        <mxCell id="8Uti4OmW7il91AyXcBxJ-133" style="edgeStyle=orthogonalEdgeStyle;rounded=0;orthogonalLoop=1;jettySize=auto;html=1;" edge="1" parent="1" source="8Uti4OmW7il91AyXcBxJ-130" target="8Uti4OmW7il91AyXcBxJ-131">
          <mxGeometry relative="1" as="geometry" />
        </mxCell>
        <mxCell id="8Uti4OmW7il91AyXcBxJ-130" value="&lt;blockquote style=&quot;margin: 0 0 0 40px; border: none; padding: 0px;&quot;&gt;glGenTextures(1,&amp;amp;textureId);&lt;/blockquote&gt;" style="whiteSpace=wrap;html=1;" vertex="1" parent="1">
          <mxGeometry x="3660" y="680" width="520" height="60" as="geometry" />
        </mxCell>
        <mxCell id="8Uti4OmW7il91AyXcBxJ-134" style="edgeStyle=orthogonalEdgeStyle;rounded=0;orthogonalLoop=1;jettySize=auto;html=1;entryX=0.5;entryY=0;entryDx=0;entryDy=0;" edge="1" parent="1" source="8Uti4OmW7il91AyXcBxJ-131" target="8Uti4OmW7il91AyXcBxJ-132">
          <mxGeometry relative="1" as="geometry" />
        </mxCell>
        <mxCell id="8Uti4OmW7il91AyXcBxJ-131" value="glBindTexture(GL_TEXTURE_2D,textureId);" style="whiteSpace=wrap;html=1;" vertex="1" parent="1">
          <mxGeometry x="3660" y="790" width="520" height="60" as="geometry" />
        </mxCell>
        <mxCell id="8Uti4OmW7il91AyXcBxJ-136" value="" style="edgeStyle=orthogonalEdgeStyle;rounded=0;orthogonalLoop=1;jettySize=auto;html=1;" edge="1" parent="1" source="8Uti4OmW7il91AyXcBxJ-132" target="8Uti4OmW7il91AyXcBxJ-135">
          <mxGeometry relative="1" as="geometry" />
        </mxCell>
        <mxCell id="8Uti4OmW7il91AyXcBxJ-132" value="glTexParameteri(GL_TEXTURE_2D,GL_TEXTURE_WRAP_S,GL_CLAMP_TO_EDGE);&lt;div&gt;glTexParameteri(GL_TEXTURE_2D,GL_TEXTURE_WRAP_T,GL_CLAMP_TO_EDGE);&lt;/div&gt;&lt;div&gt;glTexParameteri(GL_TEXTURE_2D,GL_TEXTURE_MIN_FILTER,GL_LINEAR);&lt;div&gt;glTexParameteri(GL_TEXTURE_2D,GL_TEXTURE_MAG_FILTER,GL_LINEAR);&lt;div&gt;&lt;br&gt;&lt;/div&gt;&lt;/div&gt;&lt;div&gt;&lt;br&gt;&lt;/div&gt;&lt;/div&gt;" style="whiteSpace=wrap;html=1;" vertex="1" parent="1">
          <mxGeometry x="3660" y="930" width="520" height="160" as="geometry" />
        </mxCell>
        <mxCell id="8Uti4OmW7il91AyXcBxJ-135" value="&lt;blockquote style=&quot;margin: 0 0 0 40px; border: none; padding: 0px;&quot;&gt;glPixelStorei(GL_UNPACK_ALIGNMENT,1);&lt;/blockquote&gt;" style="whiteSpace=wrap;html=1;" vertex="1" parent="1">
          <mxGeometry x="3660" y="1160" width="520" height="60" as="geometry" />
        </mxCell>
        <mxCell id="8Uti4OmW7il91AyXcBxJ-137" value="glTexImage2D(GL_TEXTURE_2D,0,GL_RGB,width,height,0,GL_RGB,GL_UNSIGNED_BYTE,data)" style="whiteSpace=wrap;html=1;" vertex="1" parent="1">
          <mxGeometry x="3650" y="1280" width="560" height="60" as="geometry" />
        </mxCell>
        <mxCell id="8Uti4OmW7il91AyXcBxJ-138" style="edgeStyle=orthogonalEdgeStyle;rounded=0;orthogonalLoop=1;jettySize=auto;html=1;entryX=0.482;entryY=0;entryDx=0;entryDy=0;entryPerimeter=0;" edge="1" parent="1" source="8Uti4OmW7il91AyXcBxJ-135" target="8Uti4OmW7il91AyXcBxJ-137">
          <mxGeometry relative="1" as="geometry" />
        </mxCell>
      </root>
    </mxGraphModel>
  </diagram>
</mxfile>
